# xmcd CD database file
#
# Track frame offsets:
#	150
#	18716
#	41917
#	63227
#	82236
#	102285
#	123431
#	146856
#	163540
#	180309
#	196794
#	212113
#	230972
#	258092
#	278713
#	294751
#
# Disc length: 4337 seconds
#
# Revision: 0
# Processed by: cddbd v1.5.1PL2 Copyright (c) Steve Scherf et al.
# Submitted via: CDex 1.50
#
DISCID=eb10ef10
DTITLE=Gerry Mulligan - Mosaic Select 21 - Gerry Mulligan Disc 1
DYEAR=2005
DGENRE=Jazz
TTITLE0=Reunion
TTITLE1=When Your Lover Has Gone
TTITLE2=Star Dust
TTITLE3=My Heart Belongs To Daddy
TTITLE4=Jersey Bounce
TTITLE5=Surrey With The Fringe On Top
TTITLE6=Ornithology
TTITLE7=Trav'lin Light
TTITLE8=People Will Say We're In Love
TTITLE9=Gee Baby, Ain't I Good To You
TTITLE10=The Song Is You
TTITLE11=Festive Minor
TTITLE12=I Got Rhythm
TTITLE13=Trav'lin Light (Alt Take)
TTITLE14=Gee Baby, Ain't I Good To Y ou (alt take)
TTITLE15=All The Things You Are
EXTD=YEAR: 2005
EXTT0=
EXTT1=
EXTT2=
EXTT3=
EXTT4=
EXTT5=
EXTT6=
EXTT7=
EXTT8=
EXTT9=
EXTT10=
EXTT11=
EXTT12=
EXTT13=
EXTT14=
EXTT15=
PLAYORDER=
